999
dxfrw 0.6.3
  0
SECTION
  2
HEADER
  9
$ACADVER
  1
AC1021
  9
$DWGCODEPAGE
  3
ANSI_1252
  9
$INSBASE
 10
0
 20
0
 30
0
  9
$EXTMIN
 10
2.389519999999997
 20
-6.296274156209806
 30
0
  9
$EXTMAX
 10
116.6982869870746
 20
97.6422
 30
0
  9
$LIMMIN
 10
0
 20
0
  9
$LIMMAX
 10
420
 20
297
  9
$ORTHOMODE
 70
    0
  9
$REGENMODE
 70
    1
  9
$FILLMODE
 70
    0
  9
$QTEXTMODE
 70
    0
  9
$MIRRTEXT
 70
    0
  9
$LTSCALE
 40
1
  9
$ATTMODE
 70
    0
  9
$TEXTSIZE
 40
2.5
  9
$TRACEWID
 40
15.68
  9
$TEXTSTYLE
  7
STANDARD
  9
$CLAYER
  8
construction2
  9
$CELTYPE
  6
BYLAYER
  9
$CECOLOR
 62
  256
  9
$CELTSCALE
 40
1
  9
$DISPSILH
 70
    0
  9
$DIMSCALE
 40
2.5
  9
$DIMASZ
 40
2.5
  9
$DIMEXO
 40
0.625
  9
$DIMDLI
 40
3.75
  9
$DIMRND
 40
0
  9
$DIMDLE
 40
0
  9
$DIMEXE
 40
1.25
  9
$DIMTP
 40
0
  9
$DIMTM
 40
0
  9
$DIMTXT
 40
2.5
  9
$DIMCEN
 40
2.5
  9
$DIMTSZ
 40
0
  9
$DIMTOL
 70
    0
  9
$DIMLIM
 70
    0
  9
$DIMTIH
 70
    0
  9
$DIMTOH
 70
    0
  9
$DIMSE1
 70
    0
  9
$DIMSE2
 70
    0
  9
$DIMTAD
 70
    1
  9
$DIMZIN
 70
    8
  9
$DIMBLK
  1

  9
$DIMASO
 70
    1
  9
$DIMSHO
 70
    1
  9
$DIMPOST
  1

  9
$DIMAPOST
  1

  9
$DIMALT
 70
    0
  9
$DIMALTD
 70
    3
  9
$DIMALTF
 40
0.03937
  9
$DIMLFAC
 40
1
  9
$DIMTOFL
 70
    1
  9
$DIMTVP
 40
0
  9
$DIMTIX
 70
    0
  9
$DIMSOXD
 70
    0
  9
$DIMSAH
 70
    0
  9
$DIMBLK1
  1

  9
$DIMBLK2
  1

  9
$DIMSTYLE
  2
Standard
  9
$DIMCLRD
 70
    0
  9
$DIMCLRE
 70
    0
  9
$DIMCLRT
 70
    0
  9
$DIMTFAC
 40
1
  9
$DIMGAP
 40
0.625
  9
$DIMJUST
 70
    0
  9
$DIMSD1
 70
    0
  9
$DIMSD2
 70
    0
  9
$DIMTOLJ
 70
    0
  9
$DIMTZIN
 70
    8
  9
$DIMALTZ
 70
    0
  9
$DIMALTTZ
 70
    0
  9
$DIMUPT
 70
    0
  9
$DIMDEC
 70
    2
  9
$DIMTDEC
 70
    2
  9
$DIMALTU
 70
    2
  9
$DIMALTTD
 70
    3
  9
$DIMTXSTY
  7
STANDARD
  9
$DIMAUNIT
 70
    0
  9
$DIMADEC
 70
    0
  9
$DIMALTRND
 40
0
  9
$DIMAZIN
 70
    0
  9
$DIMDSEP
 70
   44
  9
$DIMATFIT
 70
    3
  9
$DIMFRAC
 70
    0
  9
$DIMLDRBLK
  1
STANDARD
  9
$DIMLUNIT
 70
    2
  9
$DIMLWD
 70
   -2
  9
$DIMLWE
 70
   -2
  9
$DIMTMOVE
 70
    0
  9
$DIMFXL
 40
1
  9
$DIMFXLON
 70
    0
  9
$DIMJOGANG
 40
0.7854
  9
$DIMTFILL
 70
    0
  9
$DIMTFILLCLR
 70
    0
  9
$DIMARCSYM
 70
    0
  9
$DIMLTYPE
  6

  9
$DIMLTEX1
  6

  9
$DIMLTEX2
  6

  9
$LUNITS
 70
    2
  9
$LUPREC
 70
    4
  9
$SKETCHINC
 40
1
  9
$FILLETRAD
 40
0
  9
$AUNITS
 70
    0
  9
$AUPREC
 70
    2
  9
$MENU
  1
.
  9
$ELEVATION
 40
0
  9
$PELEVATION
 40
0
  9
$THICKNESS
 40
0
  9
$LIMCHECK
 70
    0
  9
$CHAMFERA
 40
0
  9
$CHAMFERB
 40
0
  9
$CHAMFERC
 40
0
  9
$CHAMFERD
 40
0
  9
$SKPOLY
 70
    0
  9
$USRTIMER
 70
    1
  9
$ANGBASE
 50
0
  9
$ANGDIR
 70
    0
  9
$PDMODE
 70
   34
  9
$PDSIZE
 40
0
  9
$PLINEWID
 40
0
  9
$SPLFRAME
 70
    1
  9
$SPLINETYPE
 70
    2
  9
$SPLINESEGS
 70
    8
  9
$HANDSEED
  5
20000
  9
$SURFTAB1
 70
    6
  9
$SURFTAB2
 70
    6
  9
$SURFTYPE
 70
    6
  9
$SURFU
 70
    6
  9
$SURFV
 70
    6
  9
$UCSBASE
  2

  9
$UCSNAME
  2

  9
$UCSORG
 10
0
 20
0
 30
0
  9
$UCSXDIR
 10
1
 20
0
 30
0
  9
$UCSYDIR
 10
0
 20
1
 30
0
  9
$UCSORTHOREF
  2

  9
$UCSORTHOVIEW
 70
    0
  9
$UCSORGTOP
 10
0
 20
0
 30
0
  9
$UCSORGBOTTOM
 10
0
 20
0
 30
0
  9
$UCSORGLEFT
 10
0
 20
0
 30
0
  9
$UCSORGRIGHT
 10
0
 20
0
 30
0
  9
$UCSORGFRONT
 10
0
 20
0
 30
0
  9
$UCSORGBACK
 10
0
 20
0
 30
0
  9
$PUCSBASE
  2

  9
$PUCSNAME
  2

  9
$PUCSORG
 10
0
 20
0
 30
0
  9
$PUCSXDIR
 10
1
 20
0
 30
0
  9
$PUCSYDIR
 10
0
 20
1
 30
0
  9
$PUCSORTHOREF
  2

  9
$PUCSORTHOVIEW
 70
    0
  9
$PUCSORGTOP
 10
0
 20
0
 30
0
  9
$PUCSORGBOTTOM
 10
0
 20
0
 30
0
  9
$PUCSORGLEFT
 10
0
 20
0
 30
0
  9
$PUCSORGRIGHT
 10
0
 20
0
 30
0
  9
$PUCSORGFRONT
 10
0
 20
0
 30
0
  9
$PUCSORGBACK
 10
0
 20
0
 30
0
  9
$USERI1
 70
    0
  9
$USERI2
 70
    0
  9
$USERI3
 70
    0
  9
$USERI4
 70
    0
  9
$USERI5
 70
    0
  9
$USERR1
 40
0
  9
$USERR2
 40
0
  9
$USERR3
 40
0
  9
$USERR4
 40
0
  9
$USERR5
 40
0
  9
$WORLDVIEW
 70
    1
  9
$SHADEDGE
 70
    3
  9
$SHADEDIF
 70
   70
  9
$TILEMODE
 70
    1
  9
$MAXACTVP
 70
   64
  9
$PINSBASE
 10
0
 20
0
 30
0
  9
$PLIMCHECK
 70
    0
  9
$PEXTMIN
 10
0
 20
0
 30
0
  9
$PEXTMAX
 10
0
 20
0
 30
0
  9
$GRIDMODE
 70
    1
  9
$SNAPSTYLE
 70
    0
  9
$PLIMMIN
 10
0
 20
0
  9
$PLIMMAX
 10
297
 20
210
  9
$UNITMODE
 70
    0
  9
$VISRETAIN
 70
    1
  9
$PLINEGEN
 70
    0
  9
$PSLTSCALE
 70
    1
  9
$TREEDEPTH
 70
 3020
  9
$CMLSTYLE
  2
Standard
  9
$CMLJUST
 70
    0
  9
$CMLSCALE
 40
20
  9
$PROXYGRAPHICS
 70
    1
  9
$MEASUREMENT
 70
    1
  9
$CELWEIGHT
370
   -1
  9
$ENDCAPS
280
    0
  9
$JOINSTYLE
280
    0
  9
$LWDISPLAY
290
    0
  9
$INSUNITS
 70
    4
  9
$HYPERLINKBASE
  1

  9
$STYLESHEET
  1

  9
$XEDIT
290
    1
  9
$CEPSNTYPE
380
    0
  9
$PSTYLEMODE
290
    1
  9
$EXTNAMES
290
    1
  9
$PSVPSCALE
 40
1
  9
$OLESTARTUP
290
    0
  9
$SORTENTS
280
  127
  9
$INDEXCTL
280
    0
  9
$HIDETEXT
280
    1
  9
$XCLIPFRAME
290
    0
  9
$HALOGAP
280
    0
  9
$OBSCOLOR
 70
  257
  9
$OBSLTYPE
280
    0
  9
$INTERSECTIONDISPLAY
280
    0
  9
$INTERSECTIONCOLOR
 70
  257
  9
$DIMASSOC
280
    1
  9
$PROJECTNAME
  1

  9
$CAMERADISPLAY
290
    0
  9
$LENSLENGTH
 40
50
  9
$CAMERAHEIGHT
 40
0
  9
$STEPSPERSEC
 40
2
  9
$STEPSIZE
 40
50
  9
$3DDWFPREC
 40
2
  9
$PSOLWIDTH
 40
5
  9
$PSOLHEIGHT
 40
80
  9
$LOFTANG1
 40
1.570796326794897
  9
$LOFTANG2
 40
1.570796326794897
  9
$LOFTMAG1
 40
0
  9
$LOFTMAG2
 40
0
  9
$LOFTPARAM
 70
    7
  9
$LOFTNORMALS
280
    1
  9
$LATITUDE
 40
1
  9
$LONGITUDE
 40
1
  9
$NORTHDIRECTION
 40
0
  9
$TIMEZONE
 70
-8000
  9
$LIGHTGLYPHDISPLAY
280
    1
  9
$TILEMODELIGHTSYNCH
280
    1
  9
$SOLIDHIST
280
    1
  9
$SHOWHIST
280
    1
  9
$DWFFRAME
280
    2
  9
$DGNFRAME
280
    0
  9
$REALWORLDSCALE
290
    1
  9
$INTERFERECOLOR
 62
    1
  9
$CSHADOW
280
    0
  9
$SHADOWPLANELOCATION
 40
0
  0
ENDSEC
  0
SECTION
  2
CLASSES
  0
ENDSEC
  0
SECTION
  2
TABLES
  0
TABLE
  2
VPORT
  5
8
330
0
100
AcDbSymbolTable
 70
    1
  0
VPORT
  5
31
330
2
100
AcDbSymbolTableRecord
100
AcDbViewportTableRecord
  2
*ACTIVE
 70
    0
 10
0
 20
0
 11
1
 21
1
 12
116.2049252423751
 22
59.91644679006095
 13
0
 23
0
 14
10
 24
10
 15
10
 25
10
 16
0
 26
0
 36
1
 17
0
 27
0
 37
0
 40
180.0791556736144
 41
1.871794871794872
 42
50
 43
0
 44
0
 50
0
 51
0
 71
    0
 72
  100
 73
    1
 74
    3
 75
    0
 76
    1
 77
    0
 78
    0
281
    0
 65
    1
110
0
120
0
130
0
111
1
121
0
131
0
112
0
122
1
132
0
 79
    0
146
0
348
10020
 60
    7
 61
    5
292
1
282
    1
141
0
142
0
 63
  250
421
3358443
  0
ENDTAB
  0
TABLE
  2
LTYPE
  5
5
330
0
100
AcDbSymbolTable
 70
    4
  0
LTYPE
  5
14
330
5
100
AcDbSymbolTableRecord
100
AcDbLinetypeTableRecord
  2
ByBlock
 70
    0
  3

 72
   65
 73
    0
 40
0
  0
LTYPE
  5
15
330
5
100
AcDbSymbolTableRecord
100
AcDbLinetypeTableRecord
  2
ByLayer
 70
    0
  3

 72
   65
 73
    0
 40
0
  0
LTYPE
  5
16
330
5
100
AcDbSymbolTableRecord
100
AcDbLinetypeTableRecord
  2
Continuous
 70
    0
  3
Solid line
 72
   65
 73
    0
 40
0
  0
LTYPE
  5
32
330
5
100
AcDbSymbolTableRecord
100
AcDbLinetypeTableRecord
  2
DOT
 70
    0
  3
Dot . . . . . . . . . . . . . . . . . . . . . .
 72
   65
 73
    2
 40
6.35
 49
0
 74
    0
 49
-6.35
 74
    0
  0
LTYPE
  5
33
330
5
100
AcDbSymbolTableRecord
100
AcDbLinetypeTableRecord
  2
DOTTINY
 70
    0
  3
Dot (.15x) .....................................
 72
   65
 73
    2
 40
0.9525
 49
0
 74
    0
 49
-0.9525
 74
    0
  0
LTYPE
  5
34
330
5
100
AcDbSymbolTableRecord
100
AcDbLinetypeTableRecord
  2
DOT2
 70
    0
  3
Dot (.5x) .....................................
 72
   65
 73
    2
 40
3.175
 49
0
 74
    0
 49
-3.175
 74
    0
  0
LTYPE
  5
35
330
5
100
AcDbSymbolTableRecord
100
AcDbLinetypeTableRecord
  2
DOTX2
 70
    0
  3
Dot (2x) .  .  .  .  .  .  .  .  .  .  .  .  .
 72
   65
 73
    2
 40
12.7
 49
0
 74
    0
 49
-12.7
 74
    0
  0
LTYPE
  5
36
330
5
100
AcDbSymbolTableRecord
100
AcDbLinetypeTableRecord
  2
DASHED
 70
    0
  3
Dashed _ _ _ _ _ _ _ _ _ _ _ _ _ _ _ _ _
 72
   65
 73
    2
 40
19.05
 49
12.7
 74
    0
 49
-6.35
 74
    0
  0
LTYPE
  5
37
330
5
100
AcDbSymbolTableRecord
100
AcDbLinetypeTableRecord
  2
DASHEDTINY
 70
    0
  3
Dashed (.15x) _ _ _ _ _ _ _ _ _ _ _ _ _ _ _ _ _
 72
   65
 73
    2
 40
2.8575
 49
1.905
 74
    0
 49
-0.9525
 74
    0
  0
LTYPE
  5
38
330
5
100
AcDbSymbolTableRecord
100
AcDbLinetypeTableRecord
  2
DASHED2
 70
    0
  3
Dashed (.5x) _ _ _ _ _ _ _ _ _ _ _ _ _ _ _ _ _
 72
   65
 73
    2
 40
9.524999999999999
 49
6.35
 74
    0
 49
-3.175
 74
    0
  0
LTYPE
  5
39
330
5
100
AcDbSymbolTableRecord
100
AcDbLinetypeTableRecord
  2
DASHEDX2
 70
    0
  3
Dashed (2x) ____  ____  ____  ____  ____  ___
 72
   65
 73
    2
 40
38.09999999999999
 49
25.4
 74
    0
 49
-12.7
 74
    0
  0
LTYPE
  5
3A
330
5
100
AcDbSymbolTableRecord
100
AcDbLinetypeTableRecord
  2
DASHDOT
 70
    0
  3
Dash dot __ . __ . __ . __ . __ . __ . __ . __
 72
   65
 73
    4
 40
25.4
 49
12.7
 74
    0
 49
-6.35
 74
    0
 49
0
 74
    0
 49
-6.35
 74
    0
  0
LTYPE
  5
3B
330
5
100
AcDbSymbolTableRecord
100
AcDbLinetypeTableRecord
  2
DASHDOTTINY
 70
    0
  3
Dash dot (.15x) _._._._._._._._._._._._._._._.
 72
   65
 73
    4
 40
3.81
 49
1.905
 74
    0
 49
-0.9525
 74
    0
 49
0
 74
    0
 49
-0.9525
 74
    0
  0
LTYPE
  5
3C
330
5
100
AcDbSymbolTableRecord
100
AcDbLinetypeTableRecord
  2
DASHDOT2
 70
    0
  3
Dash dot (.5x) _._._._._._._._._._._._._._._.
 72
   65
 73
    4
 40
12.7
 49
6.35
 74
    0
 49
-3.175
 74
    0
 49
0
 74
    0
 49
-3.175
 74
    0
  0
LTYPE
  5
3D
330
5
100
AcDbSymbolTableRecord
100
AcDbLinetypeTableRecord
  2
DASHDOTX2
 70
    0
  3
Dash dot (2x) ____  .  ____  .  ____  .  ___
 72
   65
 73
    4
 40
50.8
 49
25.4
 74
    0
 49
-12.7
 74
    0
 49
0
 74
    0
 49
-12.7
 74
    0
  0
LTYPE
  5
3E
330
5
100
AcDbSymbolTableRecord
100
AcDbLinetypeTableRecord
  2
DIVIDE
 70
    0
  3
Divide ____ . . ____ . . ____ . . ____ . . ____
 72
   65
 73
    6
 40
31.75
 49
12.7
 74
    0
 49
-6.35
 74
    0
 49
0
 74
    0
 49
-6.35
 74
    0
 49
0
 74
    0
 49
-6.35
 74
    0
  0
LTYPE
  5
3F
330
5
100
AcDbSymbolTableRecord
100
AcDbLinetypeTableRecord
  2
DIVIDETINY
 70
    0
  3
Divide (.15x) __..__..__..__..__..__..__..__.._
 72
   65
 73
    6
 40
4.7625
 49
1.905
 74
    0
 49
-0.9525
 74
    0
 49
0
 74
    0
 49
-0.9525
 74
    0
 49
0
 74
    0
 49
-0.9525
 74
    0
  0
LTYPE
  5
40
330
5
100
AcDbSymbolTableRecord
100
AcDbLinetypeTableRecord
  2
DIVIDE2
 70
    0
  3
Divide (.5x) __..__..__..__..__..__..__..__.._
 72
   65
 73
    6
 40
15.875
 49
6.35
 74
    0
 49
-3.175
 74
    0
 49
0
 74
    0
 49
-3.175
 74
    0
 49
0
 74
    0
 49
-3.175
 74
    0
  0
LTYPE
  5
41
330
5
100
AcDbSymbolTableRecord
100
AcDbLinetypeTableRecord
  2
DIVIDEX2
 70
    0
  3
Divide (2x) ________  .  .  ________  .  .  _
 72
   65
 73
    6
 40
63.5
 49
25.4
 74
    0
 49
-12.7
 74
    0
 49
0
 74
    0
 49
-12.7
 74
    0
 49
0
 74
    0
 49
-12.7
 74
    0
  0
LTYPE
  5
42
330
5
100
AcDbSymbolTableRecord
100
AcDbLinetypeTableRecord
  2
BORDER
 70
    0
  3
Border __ __ . __ __ . __ __ . __ __ . __ __ .
 72
   65
 73
    6
 40
44.45
 49
12.7
 74
    0
 49
-6.35
 74
    0
 49
12.7
 74
    0
 49
-6.35
 74
    0
 49
0
 74
    0
 49
-6.35
 74
    0
  0
LTYPE
  5
43
330
5
100
AcDbSymbolTableRecord
100
AcDbLinetypeTableRecord
  2
BORDERTINY
 70
    0
  3
Border (.15x) __.__.__.__.__.__.__.__.__.__.__.
 72
   65
 73
    6
 40
6.6675
 49
1.905
 74
    0
 49
-0.9525
 74
    0
 49
1.905
 74
    0
 49
-0.9525
 74
    0
 49
0
 74
    0
 49
-0.9525
 74
    0
  0
LTYPE
  5
44
330
5
100
AcDbSymbolTableRecord
100
AcDbLinetypeTableRecord
  2
BORDER2
 70
    0
  3
Border (.5x) __.__.__.__.__.__.__.__.__.__.__.
 72
   65
 73
    6
 40
22.225
 49
6.35
 74
    0
 49
-3.175
 74
    0
 49
6.35
 74
    0
 49
-3.175
 74
    0
 49
0
 74
    0
 49
-3.175
 74
    0
  0
LTYPE
  5
45
330
5
100
AcDbSymbolTableRecord
100
AcDbLinetypeTableRecord
  2
BORDERX2
 70
    0
  3
Border (2x) ____  ____  .  ____  ____  .  ___
 72
   65
 73
    6
 40
88.89999999999999
 49
25.4
 74
    0
 49
-12.7
 74
    0
 49
25.4
 74
    0
 49
-12.7
 74
    0
 49
0
 74
    0
 49
-12.7
 74
    0
  0
LTYPE
  5
46
330
5
100
AcDbSymbolTableRecord
100
AcDbLinetypeTableRecord
  2
CENTER
 70
    0
  3
Center ____ _ ____ _ ____ _ ____ _ ____ _ ____
 72
   65
 73
    4
 40
50.8
 49
31.75
 74
    0
 49
-6.35
 74
    0
 49
6.35
 74
    0
 49
-6.35
 74
    0
  0
LTYPE
  5
47
330
5
100
AcDbSymbolTableRecord
100
AcDbLinetypeTableRecord
  2
CENTERTINY
 70
    0
  3
Center (.15x) ___ _ ___ _ ___ _ ___ _ ___ _ ___
 72
   65
 73
    4
 40
7.619999999999999
 49
4.7625
 74
    0
 49
-0.9525
 74
    0
 49
0.9525
 74
    0
 49
-0.9525
 74
    0
  0
LTYPE
  5
48
330
5
100
AcDbSymbolTableRecord
100
AcDbLinetypeTableRecord
  2
CENTER2
 70
    0
  3
Center (.5x) ___ _ ___ _ ___ _ ___ _ ___ _ ___
 72
   65
 73
    4
 40
28.575
 49
19.05
 74
    0
 49
-3.175
 74
    0
 49
3.175
 74
    0
 49
-3.175
 74
    0
  0
LTYPE
  5
49
330
5
100
AcDbSymbolTableRecord
100
AcDbLinetypeTableRecord
  2
CENTERX2
 70
    0
  3
Center (2x) ________  __  ________  __  _____
 72
   65
 73
    4
 40
101.6
 49
63.5
 74
    0
 49
-12.7
 74
    0
 49
12.7
 74
    0
 49
-12.7
 74
    0
  0
ENDTAB
  0
TABLE
  2
LAYER
  5
2
330
0
100
AcDbSymbolTable
 70
    1
  0
LAYER
  5
10
330
2
100
AcDbSymbolTableRecord
100
AcDbLayerTableRecord
  2
0
 70
    0
 62
    7
  6
CONTINUOUS
370
   -3
390
F
  0
LAYER
  5
4A
330
2
100
AcDbSymbolTableRecord
100
AcDbLayerTableRecord
  2
construction
 70
    1
 62
    3
  6
CONTINUOUS
370
    0
390
F
1001
LibreCad
1070
    1
  0
LAYER
  5
4B
330
2
100
AcDbSymbolTableRecord
100
AcDbLayerTableRecord
  2
construction2
 70
    1
 62
   96
420
32768
  6
CONTINUOUS
370
    0
390
F
1001
LibreCad
1070
    1
  0
LAYER
  5
4C
330
2
100
AcDbSymbolTableRecord
100
AcDbLayerTableRecord
  2
stash
 70
    1
 62
    2
  6
CONTINUOUS
370
    0
390
F
  0
ENDTAB
  0
TABLE
  2
STYLE
  5
3
330
0
100
AcDbSymbolTable
 70
    3
  0
STYLE
  5
4D
330
2
100
AcDbSymbolTableRecord
100
AcDbTextStyleTableRecord
  2
Standard
 70
    0
 40
0
 41
1
 50
0
 71
    0
 42
1
  3
txt
  4

  0
ENDTAB
  0
TABLE
  2
VIEW
  5
6
330
0
100
AcDbSymbolTable
 70
    0
  0
ENDTAB
  0
TABLE
  2
UCS
  5
7
330
0
100
AcDbSymbolTable
 70
    0
  0
ENDTAB
  0
TABLE
  2
APPID
  5
9
330
0
100
AcDbSymbolTable
 70
    1
  0
APPID
  5
12
330
9
100
AcDbSymbolTableRecord
100
AcDbRegAppTableRecord
  2
ACAD
 70
    0
  0
APPID
  5
4E
330
9
100
AcDbSymbolTableRecord
100
AcDbRegAppTableRecord
  2
LibreCad
 70
    0
  0
ENDTAB
  0
TABLE
  2
DIMSTYLE
  5
A
330
0
100
AcDbSymbolTable
 70
    1
100
AcDbDimStyleTable
 71
    1
  0
DIMSTYLE
105
4F
330
A
100
AcDbSymbolTableRecord
100
AcDbDimStyleTableRecord
  2
Standard
 70
    0
 40
2.5
 41
2.5
 42
0.625
 43
0.38
 44
1.25
 45
0
 46
0
 47
0
 48
0
 49
1
140
2.5
141
0.09
142
0
143
25.4
144
1
145
0
146
1
147
0.625
148
0
 71
    0
 72
    0
 73
    0
 74
    1
 75
    0
 76
    0
 77
    0
 78
    8
 79
    0
170
    0
171
    2
172
    0
173
    0
174
    0
175
    0
176
    0
177
    0
178
    0
179
    0
271
    2
272
    4
273
    2
274
    2
275
    0
276
    0
277
    2
278
   44
279
    0
280
    0
281
    0
282
    0
283
    1
284
    0
285
    0
286
    0
288
    0
289
    3
340
STANDARD
341

371
   -2
372
   -2
  0
ENDTAB
  0
TABLE
  2
BLOCK_RECORD
  5
1
330
0
100
AcDbSymbolTable
 70
    2
  0
BLOCK_RECORD
  5
1F
330
1
100
AcDbSymbolTableRecord
100
AcDbBlockTableRecord
  2
*Model_Space
 70
    0
280
    1
281
    0
  0
BLOCK_RECORD
  5
1E
330
1
100
AcDbSymbolTableRecord
100
AcDbBlockTableRecord
  2
*Paper_Space
 70
    0
280
    1
281
    0
  0
ENDTAB
  0
ENDSEC
  0
SECTION
  2
BLOCKS
  0
BLOCK
  5
20
330
1F
100
AcDbEntity
  8
0
100
AcDbBlockBegin
  2
*Model_Space
 70
    0
 10
0
 20
0
 30
0
  3
*Model_Space
  1

  0
ENDBLK
  5
21
330
1F
100
AcDbEntity
  8
0
100
AcDbBlockEnd
  0
BLOCK
  5
1C
330
1B
100
AcDbEntity
  8
0
100
AcDbBlockBegin
  2
*Paper_Space
 70
    0
 10
0
 20
0
 30
0
  3
*Paper_Space
  1

  0
ENDBLK
  5
1D
330
1F
100
AcDbEntity
  8
0
100
AcDbBlockEnd
  0
ENDSEC
  0
SECTION
  2
ENTITIES
  0
ARC
  5
50
100
AcDbEntity
  8
0
  6
ByLayer
 62
  256
370
   -1
100
AcDbCircle
 10
7.389520000000004
 20
92.6422
 40
5
100
AcDbArc
 50
90.00001353248385
 51
180
  0
ARC
  5
51
100
AcDbEntity
  8
0
  6
ByLayer
 62
  256
370
   -1
100
AcDbCircle
 10
92.64220000000002
 20
92.6422
 40
5
100
AcDbArc
 50
0
 51
89.99997083560811
  0
ARC
  5
52
100
AcDbEntity
  8
0
  6
ByLayer
 62
  256
370
   -1
100
AcDbCircle
 10
7.389519999999999
 20
7.382629999999999
 40
5
100
AcDbArc
 50
180.0000018071091
 51
269.9999981928909
  0
LWPOLYLINE
  5
53
100
AcDbEntity
  8
0
  6
ByLayer
 62
    7
370
   -1
100
AcDbPolyline
 90
   24
 70
    1
 43
0
 10
21.3541
 20
3.50022
 10
21.6958
 20
3.51951
 10
22.0238
 20
3.63665
 10
22.3091
 20
3.83233
 10
22.524
 20
4.10379
 10
22.6618
 20
4.42214
 10
22.7101
 20
4.76525
 10
22.6618
 20
5.10286
 10
22.524
 20
5.42533
 10
22.3091
 20
5.69129
 10
22.0238
 20
5.89248
 10
21.6958
 20
6.00964
 10
21.3541
 20
6.0289
 10
21.011
 20
5.96138
 10
20.7078
 20
5.80154
 10
20.4542
 20
5.56451
 10
20.2765
 20
5.27237
 10
20.18
 20
4.93476
 10
20.18
 20
4.58886
 10
20.2765
 20
4.25676
 10
20.4542
 20
3.95912
 10
20.7078
 20
3.72897
 10
21.011
 20
3.56362
 10
21.3541
 20
3.50022
  0
LWPOLYLINE
  5
54
100
AcDbEntity
  8
0
  6
ByLayer
 62
    7
370
   -1
100
AcDbPolyline
 90
   24
 70
    1
 43
0
 10
95.1784
 20
20.1676
 10
95.5241
 20
20.1855
 10
95.8522
 20
20.3013
 10
96.1362
 20
20.5025
 10
96.3524
 20
20.7712
 10
96.489
 20
21.0895
 10
96.5369
 20
21.4326
 10
96.489
 20
21.773
 10
96.3524
 20
22.09
 10
96.1362
 20
22.3587
 10
95.8522
 20
22.5599
 10
95.5241
 20
22.677
 10
95.1784
 20
22.6977
 10
94.83799999999999
 20
22.6288
 10
94.5363
 20
22.4662
 10
94.28270000000001
 20
22.2319
 10
94.1049
 20
21.9397
 10
94.0082
 20
21.6021
 10
94.0082
 20
21.259
 10
94.1049
 20
20.9241
 10
94.28270000000001
 20
20.6292
 10
94.5363
 20
20.3963
 10
94.83799999999999
 20
20.2337
 10
95.1784
 20
20.1676
  0
LWPOLYLINE
  5
55
100
AcDbEntity
  8
0
  6
ByLayer
 62
    7
370
   -1
100
AcDbPolyline
 90
   24
 70
    1
 43
0
 10
4.68118
 20
20.1676
 10
5.02433
 20
20.1855
 10
5.35093
 20
20.3013
 10
5.63344
 20
20.5025
 10
5.85392
 20
20.7712
 10
5.99172
 20
21.0895
 10
6.03444
 20
21.4326
 10
5.99172
 20
21.773
 10
5.85392
 20
22.09
 10
5.63344
 20
22.3587
 10
5.35093
 20
22.5599
 10
5.02433
 20
22.677
 10
4.68118
 20
22.6977
 10
4.34082
 20
22.6288
 10
4.03352
 20
22.4662
 10
3.77994
 20
22.2319
 10
3.60218
 20
21.9397
 10
3.50435
 20
21.6021
 10
3.50435
 20
21.259
 10
3.60218
 20
20.9241
 10
3.77994
 20
20.6292
 10
4.03352
 20
20.3963
 10
4.34082
 20
20.2337
 10
4.68118
 20
20.1676
  0
LWPOLYLINE
  5
56
100
AcDbEntity
  8
0
  6
ByLayer
 62
    7
370
   -1
100
AcDbPolyline
 90
   24
 70
    1
 43
0
 10
21.3541
 20
39.2204
 10
21.6958
 20
39.2395
 10
22.0238
 20
39.3569
 10
22.3091
 20
39.558
 10
22.524
 20
39.8268
 10
22.6618
 20
40.1436
 10
22.7101
 20
40.4869
 10
22.6618
 20
40.827
 10
22.524
 20
41.1455
 10
22.3091
 20
41.4143
 10
22.0238
 20
41.6154
 10
21.6958
 20
41.7311
 10
21.3541
 20
41.752
 10
21.011
 20
41.6856
 10
20.7078
 20
41.5216
 10
20.4542
 20
41.2873
 10
20.2765
 20
40.9952
 10
20.18
 20
40.6576
 10
20.18
 20
40.3144
 10
20.2765
 20
39.9796
 10
20.4542
 20
39.6847
 10
20.7078
 20
39.4504
 10
21.011
 20
39.2878
 10
21.3541
 20
39.2204
  0
LWPOLYLINE
  5
57
100
AcDbEntity
  8
0
  6
ByLayer
 62
    7
370
   -1
100
AcDbPolyline
 90
   24
 70
    1
 43
0
 10
59.454
 20
39.2204
 10
59.7958
 20
39.2395
 10
60.1239
 20
39.3569
 10
60.409
 20
39.558
 10
60.6242
 20
39.8268
 10
60.7617
 20
40.1436
 10
60.8101
 20
40.4869
 10
60.7617
 20
40.827
 10
60.6242
 20
41.1455
 10
60.409
 20
41.4143
 10
60.1239
 20
41.6154
 10
59.7958
 20
41.7311
 10
59.454
 20
41.752
 10
59.1111
 20
41.6856
 10
58.8077
 20
41.5216
 10
58.5541
 20
41.2873
 10
58.3766
 20
40.9952
 10
58.2799
 20
40.6576
 10
58.2799
 20
40.3144
 10
58.3766
 20
39.9796
 10
58.5541
 20
39.6847
 10
58.8077
 20
39.4504
 10
59.1111
 20
39.2878
 10
59.454
 20
39.2204
  0
LWPOLYLINE
  5
58
100
AcDbEntity
  8
0
  6
ByLayer
 62
    7
370
   -1
100
AcDbPolyline
 90
   24
 70
    1
 43
0
 10
78.50539999999999
 20
58.2704
 10
78.8539
 20
58.2895
 10
79.1767
 20
58.4069
 10
79.4618
 20
58.608
 10
79.6823
 20
58.8768
 10
79.8188
 20
59.1936
 10
79.8629
 20
59.5369
 10
79.8188
 20
59.877
 10
79.6823
 20
60.1955
 10
79.4618
 20
60.4643
 10
79.1767
 20
60.6654
 10
78.8539
 20
60.7811
 10
78.50539999999999
 20
60.802
 10
78.1678
 20
60.7356
 10
77.8605
 20
60.5716
 10
77.6069
 20
60.3373
 10
77.42910000000001
 20
60.0452
 10
77.33280000000001
 20
59.7076
 10
77.33280000000001
 20
59.3644
 10
77.42910000000001
 20
59.0296
 10
77.6069
 20
58.7347
 10
77.8605
 20
58.5004
 10
78.1678
 20
58.3378
 10
78.50539999999999
 20
58.2704
  0
LWPOLYLINE
  5
59
100
AcDbEntity
  8
0
  6
ByLayer
 62
    7
370
   -1
100
AcDbPolyline
 90
   24
 70
    1
 43
0
 10
40.404
 20
58.2704
 10
40.7458
 20
58.2895
 10
41.0739
 20
58.4069
 10
41.359
 20
58.608
 10
41.5742
 20
58.8768
 10
41.7117
 20
59.1936
 10
41.7601
 20
59.5369
 10
41.7117
 20
59.877
 10
41.5742
 20
60.1955
 10
41.359
 20
60.4643
 10
41.0739
 20
60.6654
 10
40.7458
 20
60.7811
 10
40.404
 20
60.802
 10
40.0611
 20
60.7356
 10
39.7577
 20
60.5716
 10
39.5041
 20
60.3373
 10
39.3266
 20
60.0452
 10
39.2299
 20
59.7076
 10
39.2299
 20
59.3644
 10
39.3266
 20
59.0296
 10
39.5041
 20
58.7347
 10
39.7577
 20
58.5004
 10
40.0611
 20
58.3378
 10
40.404
 20
58.2704
  0
LWPOLYLINE
  5
5A
100
AcDbEntity
  8
0
  6
ByLayer
 62
    7
370
   -1
100
AcDbPolyline
 90
   24
 70
    1
 43
0
 10
95.1784
 20
77.3271
 10
95.5241
 20
77.3451
 10
95.8522
 20
77.4622
 10
96.1362
 20
77.6623
 10
96.3524
 20
77.93210000000001
 10
96.489
 20
78.24930000000001
 10
96.5369
 20
78.59220000000001
 10
96.489
 20
78.93259999999999
 10
96.3524
 20
79.24979999999999
 10
96.1362
 20
79.5196
 10
95.8522
 20
79.7197
 10
95.5241
 20
79.8368
 10
95.1784
 20
79.85720000000001
 10
94.83799999999999
 20
79.79130000000001
 10
94.5363
 20
79.6258
 10
94.28270000000001
 20
79.393
 10
94.1049
 20
79.1009
 10
94.0082
 20
78.7633
 10
94.0082
 20
78.42
 10
94.1049
 20
78.0838
 10
94.28270000000001
 20
77.7903
 10
94.5363
 20
77.5561
 10
94.83799999999999
 20
77.3934
 10
95.1784
 20
77.3271
  0
LWPOLYLINE
  5
5B
100
AcDbEntity
  8
0
  6
ByLayer
 62
    7
370
   -1
100
AcDbPolyline
 90
   24
 70
    1
 43
0
 10
4.68118
 20
77.3271
 10
5.02433
 20
77.3451
 10
5.35093
 20
77.4622
 10
5.63344
 20
77.6623
 10
5.85392
 20
77.93210000000001
 10
5.99172
 20
78.24930000000001
 10
6.03444
 20
78.59220000000001
 10
5.99172
 20
78.93259999999999
 10
5.85392
 20
79.24979999999999
 10
5.63344
 20
79.5196
 10
5.35093
 20
79.7197
 10
5.02433
 20
79.8368
 10
4.68118
 20
79.85720000000001
 10
4.34082
 20
79.79130000000001
 10
4.03352
 20
79.6258
 10
3.77994
 20
79.393
 10
3.60218
 20
79.1009
 10
3.50435
 20
78.7633
 10
3.50435
 20
78.42
 10
3.60218
 20
78.0838
 10
3.77994
 20
77.7903
 10
4.03352
 20
77.5561
 10
4.34082
 20
77.3934
 10
4.68118
 20
77.3271
  0
ARC
  5
5C
100
AcDbEntity
  8
0
  6
ByLayer
 62
  256
370
   -1
100
AcDbCircle
 10
111.6982869870746
 20
7.382629999999999
 40
5
100
AcDbArc
 50
269.9999999999998
 51
0
  0
LINE
  5
5D
100
AcDbEntity
  8
0
  6
ByLayer
 62
  256
370
   -1
100
AcDbLine
 10
7.389520157700025
 20
2.382629999999999
 11
111.6982868842023
 21
2.382629999999999
  0
LINE
  5
5E
100
AcDbEntity
  8
0
  6
ByLayer
 62
  256
370
   -1
100
AcDbLine
 10
2.38952
 20
7.382630157700024
 11
2.389519999999997
 21
92.64219852764504
  0
LINE
  5
5F
100
AcDbEntity
  8
0
  6
ByLayer
 62
  256
370
   -1
100
AcDbLine
 10
7.389521180932029
 20
97.6422
 11
92.64220254507333
 21
97.6422
  0
LINE
  5
60
100
AcDbEntity
  8
construction
  6
ByLayer
 62
  256
370
   -1
100
AcDbLine
 10
97.64220000000002
 20
92.6422
 11
97.64220000000002
 21
102.6422
  0
LINE
  5
61
100
AcDbEntity
  8
construction
  6
ByLayer
 62
  256
370
   -1
100
AcDbLine
 10
107.1982869870746
 20
7.382629999999992
 11
107.1982869870746
 21
35.49569863169398
  0
LINE
  5
62
100
AcDbEntity
  8
construction
  6
ByLayer
 62
  256
370
   -1
100
AcDbLine
 10
102.6433911784057
 20
40.49521565308827
 11
112.6433911784057
 21
40.49521565308827
  0
LINE
  5
63
100
AcDbEntity
  8
construction
  6
ByLayer
 62
  256
370
   -1
100
AcDbLine
 10
116.6982869870746
 20
21.43916431584699
 11
126.6982869870746
 21
21.43916431584699
  0
LINE
  5
64
100
AcDbEntity
  8
construction
  6
ByLayer
 62
  256
370
   -1
100
AcDbLine
 10
102.6433911784057
 20
30.96718998446763
 11
112.6433911784057
 21
30.96718998446763
  0
LINE
  5
65
100
AcDbEntity
  8
construction
  6
ByLayer
 62
  256
370
   -1
100
AcDbLine
 10
102.6433911784057
 20
11.9108971579235
 11
112.6433911784057
 21
11.9108971579235
  0
LINE
  5
66
100
AcDbEntity
  8
0
  6
ByLayer
 62
  256
370
   -1
100
AcDbLine
 10
102.6427955887783
 20
45.49521561761557
 11
111.6965002172269
 21
45.49629407613654
  0
ARC
  5
67
100
AcDbEntity
  8
0
  6
ByLayer
 62
  256
370
   -1
100
AcDbCircle
 10
102.6416044103726
 20
50.49521551119757
 40
5.000000035472702
100
AcDbArc
 50
180.0068249544109
 51
270
  0
ARC
  5
68
100
AcDbEntity
  8
0
  6
ByLayer
 62
  256
370
   -1
100
AcDbCircle
 10
111.6965002162614
 20
40.49629404066384
 40
5.0000000354727
100
AcDbArc
 50
0.006824954410860165
 51
89.99999998893635
  0
LINE
  5
69
100
AcDbEntity
  8
0
  6
ByLayer
 62
  256
370
   -1
100
AcDbLine
 10
97.64220000000003
 20
50.57238996470275
 11
97.64220000000002
 21
92.6422
  0
LINE
  5
6A
100
AcDbEntity
  8
0
  6
ByLayer
 62
  256
370
   -1
100
AcDbLine
 10
116.6982869870746
 20
7.382629999999999
 11
116.6982869870746
 21
40.4968896302955
  0
LINE
  5
6B
100
AcDbEntity
  8
construction
  6
ByLayer
 62
  256
370
   -1
100
AcDbLine
 10
102.6433911784057
 20
42.99521565308827
 11
112.6433911784057
 21
42.99521565308827
  0
LINE
  5
6C
100
AcDbEntity
  8
stash
  6
ByLayer
 62
  256
370
   -1
100
AcDbLine
 10
114.1982869870746
 20
4.910897157923497
 11
114.1982869870746
 21
18.9108971579235
  0
LINE
  5
6D
100
AcDbEntity
  8
stash
  6
ByLayer
 62
  256
370
   -1
100
AcDbLine
 10
100.1982869870746
 20
4.910897157923497
 11
100.1982869870746
 21
18.9108971579235
  0
LINE
  5
6E
100
AcDbEntity
  8
stash
  6
ByLayer
 62
  256
370
   -1
100
AcDbLine
 10
100.1982869870746
 20
4.910897157923497
 11
114.1982869870746
 21
4.910897157923497
  0
LINE
  5
6F
100
AcDbEntity
  8
stash
  6
ByLayer
 62
  256
370
   -1
100
AcDbLine
 10
100.1982869870746
 20
18.9108971579235
 11
114.1982869870746
 21
18.9108971579235
  0
LINE
  5
70
100
AcDbEntity
  8
stash
  6
ByLayer
 62
  256
370
   -1
100
AcDbLine
 10
114.1982869870746
 20
23.96718998446763
 11
114.1982869870746
 21
37.96718998446764
  0
LINE
  5
71
100
AcDbEntity
  8
stash
  6
ByLayer
 62
  256
370
   -1
100
AcDbLine
 10
100.1982869870746
 20
23.96718998446763
 11
100.1982869870746
 21
37.96718998446764
  0
LINE
  5
72
100
AcDbEntity
  8
stash
  6
ByLayer
 62
  256
370
   -1
100
AcDbLine
 10
100.1982869870746
 20
37.96718998446764
 11
114.1982869870746
 21
37.96718998446764
  0
LINE
  5
73
100
AcDbEntity
  8
stash
  6
ByLayer
 62
  256
370
   -1
100
AcDbLine
 10
100.1982869870746
 20
23.96718998446764
 11
114.1982869870746
 21
23.96718998446763
  0
LINE
  5
74
100
AcDbEntity
  8
construction
  6
ByLayer
 62
  256
370
   -1
100
AcDbLine
 10
102.4202434935373
 20
40.49521565308827
 11
102.4202434935373
 21
50.49521565308827
  0
LINE
  5
75
100
AcDbEntity
  8
construction
  6
ByLayer
 62
  256
370
   -1
100
AcDbLine
 10
111.9482869870746
 20
30.96718998446763
 11
111.9482869870746
 21
40.96718998446763
  0
CIRCLE
  5
76
100
AcDbEntity
  8
0
  6
ByLayer
 62
  256
370
   -1
100
AcDbCircle
 10
102.42
 20
42.9952
 40
1.05
  0
CIRCLE
  5
77
100
AcDbEntity
  8
0
  6
ByLayer
 62
  256
370
   -1
100
AcDbCircle
 10
111.9480434935373
 20
42.9952
 40
1.05
  0
CIRCLE
  5
78
100
AcDbEntity
  8
0
  6
ByLayer
 62
  256
370
   -1
100
AcDbCircle
 10
107.198
 20
21.4392
 40
1.05
  0
ARC
  5
79
100
AcDbEntity
  8
0
  6
ByLayer
 62
  256
370
   -1
100
AcDbCircle
 10
84.97925396411229
 20
53.00538785511963
 40
5
100
AcDbArc
 50
269.9999999999998
 51
0
  0
LINE
  5
7A
100
AcDbEntity
  8
0
  6
ByLayer
 62
  256
370
   -1
100
AcDbLine
 10
87.47925396411229
 20
50.53365501304313
 11
87.47925396411227
 21
64.53365501304313
  0
LINE
  5
7B
100
AcDbEntity
  8
0
  6
ByLayer
 62
  256
370
   -1
100
AcDbLine
 10
73.47925396411229
 20
50.53365501304313
 11
73.47925396411226
 21
64.53365501304313
  0
LINE
  5
7C
100
AcDbEntity
  8
0
  6
ByLayer
 62
  256
370
   -1
100
AcDbLine
 10
73.47925396411227
 20
50.53365501304313
 11
87.47925396411229
 21
50.53365501304313
  0
LINE
  5
7D
100
AcDbEntity
  8
0
  6
ByLayer
 62
  256
370
   -1
100
AcDbLine
 10
73.47925396411225
 20
64.53365501304313
 11
87.47925396411229
 21
64.53365501304313
  0
LINE
  5
7E
100
AcDbEntity
  8
0
  6
ByLayer
 62
  256
370
   -1
100
AcDbLine
 10
87.47925396411227
 20
69.58994783958727
 11
87.47925396411226
 21
83.58994783958727
  0
LINE
  5
7F
100
AcDbEntity
  8
0
  6
ByLayer
 62
  256
370
   -1
100
AcDbLine
 10
73.47925396411226
 20
69.58994783958727
 11
73.47925396411226
 21
83.58994783958727
  0
LINE
  5
80
100
AcDbEntity
  8
0
  6
ByLayer
 62
  256
370
   -1
100
AcDbLine
 10
73.47925396411226
 20
83.58994783958727
 11
87.47925396411226
 21
83.58994783958727
  0
LINE
  5
81
100
AcDbEntity
  8
0
  6
ByLayer
 62
  256
370
   -1
100
AcDbLine
 10
73.47925396411226
 20
69.58994783958727
 11
87.47925396411227
 21
69.58994783958727
  0
ARC
  5
82
100
AcDbEntity
  8
0
  6
ByLayer
 62
  256
370
   -1
100
AcDbCircle
 10
84.97746719329903
 20
86.11905189578346
 40
5.0000000354727
100
AcDbArc
 50
0.006824954410860165
 51
89.99999998893635
  0
LINE
  5
83
100
AcDbEntity
  8
0
  6
ByLayer
 62
  256
370
   -1
100
AcDbLine
 10
89.97925396411227
 20
53.00538785511963
 11
89.97925396411226
 21
86.11964748541511
  0
LINE
  5
84
100
AcDbEntity
  8
0
  6
ByLayer
 62
  256
370
   -1
100
AcDbLine
 10
70.92257138741023
 20
48.00538785511963
 11
84.97925386123993
 21
48.00538785511963
  0
LINE
  5
85
100
AcDbEntity
  8
0
  6
ByLayer
 62
  256
370
   -1
100
AcDbLine
 10
70.92257138741023
 20
91.11737774121282
 11
84.97746719426452
 21
91.11905193125617
  0
LINE
  5
86
100
AcDbEntity
  8
0
  6
ByLayer
 62
  256
370
   -1
100
AcDbLine
 10
70.92257138741023
 20
48.00538785511963
 11
70.92257138741023
 21
91.11737774121282
  0
CIRCLE
  5
87
100
AcDbEntity
  8
0
  6
ByLayer
 62
  256
370
   -1
100
AcDbCircle
 10
75.70096697703765
 20
88.61795785511963
 40
1.05
  0
CIRCLE
  5
88
100
AcDbEntity
  8
0
  6
ByLayer
 62
  256
370
   -1
100
AcDbCircle
 10
85.22901047057496
 20
88.61795785511963
 40
1.05
  0
CIRCLE
  5
89
100
AcDbEntity
  8
0
  6
ByLayer
 62
  256
370
   -1
100
AcDbCircle
 10
80.47896697703764
 20
67.06195785511963
 40
1.05
  0
LINE
  5
8A
100
AcDbEntity
  8
construction
  6
ByLayer
 62
  256
370
   -1
100
AcDbLine
 10
4.78952
 20
7.382630157700024
 11
4.789519999999997
 21
92.64219852764504
  0
LINE
  5
8B
100
AcDbEntity
  8
construction
  6
ByLayer
 62
  256
370
   -1
100
AcDbLine
 10
95.24220000000003
 20
50.57238996470275
 11
95.24220000000001
 21
92.6422
  0
CIRCLE
  5
8C
100
AcDbEntity
  8
construction2
  6
ByLayer
 62
  256
370
   -1
100
AcDbCircle
 10
95.26731321173945
 20
78.59163309416212
 40
1.263432213858573
  0
LINE
  5
8D
100
AcDbEntity
  8
construction2
  6
ByLayer
 62
  256
370
   -1
100
AcDbLine
 10
95.27220000000003
 20
50.57238996470275
 11
95.27220000000001
 21
92.6422
  0
LINE
  5
8E
100
AcDbEntity
  8
construction2
  6
ByLayer
 62
  256
370
   -1
100
AcDbLine
 10
58.5569
 20
94.4577
 11
60.6323
 21
95.9196
  0
LINE
  5
8F
100
AcDbEntity
  8
construction2
  6
ByLayer
 62
  256
370
   -1
100
AcDbLine
 10
58.5569
 20
96.06319999999999
 11
60.4118
 21
94.3296
  0
LINE
  5
90
100
AcDbEntity
  8
construction2
  6
ByLayer
 62
  256
370
   -1
100
AcDbLine
 10
60.6323
 20
94.59950000000001
 11
58.5569
 21
96.06319999999999
  0
LINE
  5
91
100
AcDbEntity
  8
construction2
  6
ByLayer
 62
  256
370
   -1
100
AcDbLine
 10
60.4118
 20
96.18980000000001
 11
58.5569
 21
94.4577
  0
LINE
  5
92
100
AcDbEntity
  8
construction2
  6
ByLayer
 62
  256
370
   -1
100
AcDbLine
 10
59.4554
 20
93.992
 11
59.8039
 21
96.50409999999999
  0
LINE
  5
93
100
AcDbEntity
  8
construction2
  6
ByLayer
 62
  256
370
   -1
100
AcDbLine
 10
59.8039
 20
96.50409999999999
 11
59.1178
 21
94.0608
  0
LINE
  5
94
100
AcDbEntity
  8
construction
  6
ByLayer
 62
  256
370
   -1
100
AcDbLine
 10
59.53646072404051
 20
95.14769702345322
 11
59.53642568238556
 21
95.37237811443207
  0
LINE
  5
95
100
AcDbEntity
  8
construction
  6
ByLayer
 62
  256
370
   -1
100
AcDbLine
 10
59.41619017225956
 20
95.26010255936752
 11
59.69583037325677
 21
95.25995610131253
  0
CIRCLE
  5
96
100
AcDbEntity
  8
0
  6
ByLayer
 62
  256
370
   -1
100
AcDbCircle
 10
59.53644320289965
 20
95.26003957834796
 40
1.05
  0
LWPOLYLINE
  5
97
100
AcDbEntity
  8
stash
  6
ByLayer
 62
  256
370
   -1
100
AcDbPolyline
 90
   24
 70
    1
 43
0
 10
59.4554
 20
93.992
 10
59.8039
 20
94.0153
 10
60.1267
 20
94.1296
 10
60.4118
 20
94.3296
 10
60.6323
 20
94.59950000000001
 10
60.7688
 20
94.9194
 10
60.8129
 20
95.25709999999999
 10
60.7688
 20
95.59999999999999
 10
60.6323
 20
95.9196
 10
60.4118
 20
96.18980000000001
 10
60.1267
 20
96.3856
 10
59.8039
 20
96.50409999999999
 10
59.4554
 20
96.5218
 10
59.1178
 20
96.4586
 10
58.8105
 20
96.29600000000001
 10
58.5569
 20
96.06319999999999
 10
58.3791
 20
95.7654
 10
58.2828
 20
95.432
 10
58.2828
 20
95.0874
 10
58.3791
 20
94.74979999999999
 10
58.5569
 20
94.4577
 10
58.8105
 20
94.2206
 10
59.1178
 20
94.0608
 10
59.4554
 20
93.992
  0
LINE
  5
98
100
AcDbEntity
  8
construction2
  6
ByLayer
 62
  256
370
   -1
100
AcDbLine
 10
77.6069
 20
3.95912
 11
79.4618
 21
5.69129
  0
LINE
  5
99
100
AcDbEntity
  8
construction2
  6
ByLayer
 62
  256
370
   -1
100
AcDbLine
 10
79.4618
 20
5.69129
 11
77.8605
 21
3.72897
  0
LINE
  5
9A
100
AcDbEntity
  8
construction2
  6
ByLayer
 62
  256
370
   -1
100
AcDbLine
 10
79.4618
 20
3.83233
 11
77.8605
 21
5.80154
  0
LINE
  5
9B
100
AcDbEntity
  8
construction2
  6
ByLayer
 62
  256
370
   -1
100
AcDbLine
 10
77.8605
 20
5.80154
 11
79.1767
 21
3.63665
  0
LINE
  5
9C
100
AcDbEntity
  8
construction2
  6
ByLayer
 62
  256
370
   -1
100
AcDbLine
 10
79.8188
 20
4.42214
 11
77.33280000000001
 21
4.93476
  0
LINE
  5
9D
100
AcDbEntity
  8
construction2
  6
ByLayer
 62
  256
370
   -1
100
AcDbLine
 10
77.33280000000001
 20
4.93476
 11
79.8629
 21
4.76525
  0
LINE
  5
9E
100
AcDbEntity
  8
construction2
  6
ByLayer
 62
  256
370
   -1
100
AcDbLine
 10
78.58258502940554
 20
4.613852217512703
 11
78.60259910230846
 21
4.888938380530303
  0
LINE
  5
9F
100
AcDbEntity
  8
construction2
  6
ByLayer
 62
  256
370
   -1
100
AcDbLine
 10
78.70465134591367
 20
4.763438912204672
 11
78.48315411506071
 21
4.777396505733321
  0
CIRCLE
  5
A0
100
AcDbEntity
  8
0
  6
ByLayer
 62
  256
370
   -1
100
AcDbCircle
 10
78.59397571904934
 20
4.770413109612704
 40
1.05
  0
LWPOLYLINE
  5
A1
100
AcDbEntity
  8
stash
  6
ByLayer
 62
  256
370
   -1
100
AcDbPolyline
 90
   24
 70
    1
 43
0
 10
78.50539999999999
 20
3.50022
 10
78.8539
 20
3.51951
 10
79.1767
 20
3.63665
 10
79.4618
 20
3.83233
 10
79.6823
 20
4.10379
 10
79.8188
 20
4.42214
 10
79.8629
 20
4.76525
 10
79.8188
 20
5.10286
 10
79.6823
 20
5.42533
 10
79.4618
 20
5.69129
 10
79.1767
 20
5.89248
 10
78.8539
 20
6.00964
 10
78.50539999999999
 20
6.0289
 10
78.1678
 20
5.96138
 10
77.8605
 20
5.80154
 10
77.6069
 20
5.56451
 10
77.42910000000001
 20
5.27237
 10
77.33280000000001
 20
4.93476
 10
77.33280000000001
 20
4.58886
 10
77.42910000000001
 20
4.25676
 10
77.6069
 20
3.95912
 10
77.8605
 20
3.72897
 10
78.1678
 20
3.56362
 10
78.50539999999999
 20
3.50022
  0
ENDSEC
  0
SECTION
  2
OBJECTS
  0
DICTIONARY
  5
C
330
0
100
AcDbDictionary
281
    1
  3
ACAD_GROUP
350
D
  0
DICTIONARY
  5
D
330
C
100
AcDbDictionary
281
    1
  0
ENDSEC
  0
EOF
